<svg width="289" height="80" viewBox="0 0 289 80" fill="none" xmlns="http://www.w3.org/2000/svg">
<path d="M26.4 79.5C21.8667 79.5 17.9333 78.8 14.6 77.4C11.2667 76 8.53333 74.1 6.4 71.7C4.26667 69.2333 2.66667 66.3333 1.6 63C0.6 59.6667 0.1 56.0667 0.1 52.2V8.7H9.8V51.1C9.8 58.0333 11.3333 63.0667 14.4 66.2C17.4667 69.3333 21.4667 70.9 26.4 70.9C28.8667 70.9 31.1 70.5333 33.1 69.8C35.1667 69 36.9333 67.8 38.4 66.2C39.8667 64.6 41 62.5667 41.8 60.1C42.6 57.5667 43 54.5667 43 51.1V8.7H52.7V52.2C52.7 56.0667 52.1667 59.6667 51.1 63C50.1 66.3333 48.5 69.2333 46.3 71.7C44.1667 74.1 41.4333 76 38.1 77.4C34.8333 78.8 30.9333 79.5 26.4 79.5ZM78.1477 28.3C79.281 27.5667 80.981 26.8 83.2477 26C85.581 25.2 88.2477 24.8 91.2477 24.8C94.981 24.8 98.281 25.4667 101.148 26.8C104.081 28.1333 106.548 30 108.548 32.4C110.548 34.8 112.048 37.6667 113.048 41C114.114 44.3333 114.648 48 114.648 52C114.648 56.2 114.014 60 112.748 63.4C111.548 66.7333 109.814 69.5667 107.548 71.9C105.281 74.2333 102.548 76.0333 99.3477 77.3C96.1477 78.5667 92.5477 79.2 88.5477 79.2C84.2143 79.2 80.381 78.9 77.0477 78.3C73.7143 77.7 70.981 77.1 68.8477 76.5V1.99999L78.1477 0.399998V28.3ZM78.1477 69.9C79.081 70.1667 80.381 70.4333 82.0477 70.7C83.781 70.9 85.9143 71 88.4477 71C93.4477 71 97.4477 69.3667 100.448 66.1C103.448 62.7667 104.948 58.0667 104.948 52C104.948 49.3333 104.681 46.8333 104.148 44.5C103.614 42.1667 102.748 40.1667 101.548 38.5C100.348 36.7667 98.781 35.4333 96.8477 34.5C94.981 33.5 92.7143 33 90.0477 33C87.5143 33 85.181 33.4333 83.0477 34.3C80.9143 35.1667 79.281 36.0667 78.1477 37V69.9ZM127.734 27.5C129.868 26.9667 132.701 26.4 136.234 25.8C139.768 25.2 143.834 24.9 148.434 24.9C152.568 24.9 156.001 25.5 158.734 26.7C161.468 27.8333 163.634 29.4667 165.234 31.6C166.901 33.6667 168.068 36.1667 168.734 39.1C169.401 42.0333 169.734 45.2667 169.734 48.8V78H160.434V50.8C160.434 47.6 160.201 44.8667 159.734 42.6C159.334 40.3333 158.634 38.5 157.634 37.1C156.634 35.7 155.301 34.7 153.634 34.1C151.968 33.4333 149.901 33.1 147.434 33.1C146.434 33.1 145.401 33.1333 144.334 33.2C143.268 33.2667 142.234 33.3667 141.234 33.5C140.301 33.5667 139.434 33.6667 138.634 33.8C137.901 33.9333 137.368 34.0333 137.034 34.1V78H127.734V27.5ZM193.856 26H213.556V33.8H193.856V57.8C193.856 60.4 194.056 62.5667 194.456 64.3C194.856 65.9667 195.456 67.3 196.256 68.3C197.056 69.2333 198.056 69.9 199.256 70.3C200.456 70.7 201.856 70.9 203.456 70.9C206.256 70.9 208.49 70.6 210.156 70C211.89 69.3333 213.09 68.8667 213.756 68.6L215.556 76.3C214.623 76.7667 212.99 77.3333 210.656 78C208.323 78.7333 205.656 79.1 202.656 79.1C199.123 79.1 196.19 78.6667 193.856 77.8C191.59 76.8667 189.756 75.5 188.356 73.7C186.956 71.9 185.956 69.7 185.356 67.1C184.823 64.4333 184.556 61.3667 184.556 57.9V11.5L193.856 9.89999V26Z" fill="#E95420"/>
<path d="M242.991 71.3C245.191 71.3 247.124 71.2667 248.791 71.2C250.524 71.0667 251.957 70.8667 253.091 70.6V55.1C252.424 54.7667 251.324 54.5 249.791 54.3C248.324 54.0333 246.524 53.9 244.391 53.9C242.991 53.9 241.491 54 239.891 54.2C238.357 54.4 236.924 54.8333 235.591 55.5C234.324 56.1 233.257 56.9667 232.391 58.1C231.524 59.1667 231.091 60.6 231.091 62.4C231.091 65.7333 232.157 68.0667 234.291 69.4C236.424 70.6667 239.324 71.3 242.991 71.3ZM242.191 24.7C245.924 24.7 249.057 25.2 251.591 26.2C254.191 27.1333 256.257 28.5 257.791 30.3C259.391 32.0333 260.524 34.1333 261.191 36.6C261.857 39 262.191 41.6667 262.191 44.6V77.1C261.391 77.2333 260.257 77.4333 258.791 77.7C257.391 77.9 255.791 78.1 253.991 78.3C252.191 78.5 250.224 78.6667 248.091 78.8C246.024 79 243.957 79.1 241.891 79.1C238.957 79.1 236.257 78.8 233.791 78.2C231.324 77.6 229.191 76.6667 227.391 75.4C225.591 74.0667 224.191 72.3333 223.191 70.2C222.191 68.0667 221.691 65.5 221.691 62.5C221.691 59.6333 222.257 57.1667 223.391 55.1C224.591 53.0333 226.191 51.3667 228.191 50.1C230.191 48.8333 232.524 47.9 235.191 47.3C237.857 46.7 240.657 46.4 243.591 46.4C244.524 46.4 245.491 46.4667 246.491 46.6C247.491 46.6667 248.424 46.8 249.291 47C250.224 47.1333 251.024 47.2667 251.691 47.4C252.357 47.5333 252.824 47.6333 253.091 47.7V45.1C253.091 43.5667 252.924 42.0667 252.591 40.6C252.257 39.0667 251.657 37.7333 250.791 36.6C249.924 35.4 248.724 34.4667 247.191 33.8C245.724 33.0667 243.791 32.7 241.391 32.7C238.324 32.7 235.624 32.9333 233.291 33.4C231.024 33.8 229.324 34.2333 228.191 34.7L227.091 27C228.291 26.4667 230.291 25.9667 233.091 25.5C235.891 24.9667 238.924 24.7 242.191 24.7ZM286.937 78H277.637V26H286.937V78ZM282.237 16.6C280.57 16.6 279.137 16.0667 277.937 15C276.803 13.8667 276.237 12.3667 276.237 10.5C276.237 8.63333 276.803 7.16666 277.937 6.1C279.137 4.96666 280.57 4.39999 282.237 4.39999C283.903 4.39999 285.303 4.96666 286.437 6.1C287.637 7.16666 288.237 8.63333 288.237 10.5C288.237 12.3667 287.637 13.8667 286.437 15C285.303 16.0667 283.903 16.6 282.237 16.6Z" fill="#5E2750"/>
</svg>
