<svg width="40" height="40" viewBox="0 0 40 40" fill="none" xmlns="http://www.w3.org/2000/svg">
<path d="M20 0C14.6957 0 9.60859 2.10714 5.85786 5.85786C2.10714 9.60859 0 14.6957 0 20C0 25.3043 2.10714 30.3914 5.85786 34.1421C9.60859 37.8929 14.6957 40 20 40C25.3043 40 30.3914 37.8929 34.1421 34.1421C37.8929 30.3914 40 25.3043 40 20C40 14.6957 37.8929 9.60859 34.1421 5.85786C30.3914 2.10714 25.3043 0 20 0ZM19.9833 8.75C21.8935 8.75 23.4464 9.29864 24.6429 10.3962C25.8394 11.4734 26.4397 12.8554 26.4397 14.5424C26.4397 15.2741 26.2359 16.0169 25.8371 16.769C25.4382 17.521 25.0861 18.0565 24.7712 18.3817C24.4773 18.6866 24.0558 19.0881 23.51 19.5759L23.3538 19.7266C22.0733 20.8444 21.4286 21.9625 21.4286 23.0804V24.2969H18.471V22.8683C18.471 21.9537 18.6748 21.1694 19.0737 20.519C19.4725 19.8482 20.1755 19.064 21.183 18.1696C21.7498 17.6615 22.1463 17.2863 22.3772 17.0424C22.6291 16.7782 22.8718 16.4237 23.1027 15.9766C23.3546 15.5091 23.4821 15.0302 23.4821 14.5424C23.4821 13.6075 23.1632 12.8571 22.5335 12.2879C21.9247 11.7188 21.0748 11.4286 19.9833 11.4286C18.178 11.4286 16.9385 12.407 16.2667 14.3583L13.5603 13.2645C14.0011 12.106 14.7609 11.0653 15.8315 10.1507C16.923 9.21571 18.304 8.75 19.9833 8.75ZM19.9498 27.1038C20.5585 27.1038 21.0632 27.3111 21.4621 27.7176C21.8819 28.1241 22.0926 28.605 22.0926 29.1741C22.0926 29.7432 21.8819 30.2352 21.4621 30.6417C21.0633 31.0482 20.5585 31.25 19.9498 31.25C19.341 31.25 18.8294 31.0482 18.4096 30.6417C18.0108 30.2352 17.8125 29.7432 17.8125 29.1741C17.8125 28.605 18.0108 28.1241 18.4096 27.7176C18.8294 27.3111 19.341 27.1038 19.9498 27.1038Z" fill="#D1D1D1"/>
</svg>
