<svg width="44" height="44" viewBox="0 0 44 44" fill="none" xmlns="http://www.w3.org/2000/svg">
<path d="M28 18.6211C28 21.9349 25.3138 24.6211 22 24.6211C18.6862 24.6211 16 21.9349 16 18.6211C16 15.3074 18.6862 12.6211 22 12.6211C25.3138 12.6211 28 15.3074 28 18.6211Z" stroke="#D1D1D1" stroke-width="3"/>
<path d="M38.027 22.4277C39.0788 22.1115 39.6048 21.9533 39.8024 21.6877C40 21.4221 40 20.9949 40 20.1407V17.1016C40 16.2474 40 15.8203 39.8024 15.5546C39.6048 15.2889 39.0788 15.1309 38.027 14.8148C34.7012 13.8155 32.6182 10.3661 33.3654 7.02874C33.6118 5.92788 33.735 5.37744 33.6008 5.07534C33.4664 4.77324 33.0914 4.5616 32.3416 4.1383L29.5902 2.58532C28.8586 2.17234 28.4928 1.96586 28.1676 2.00484C27.8424 2.0438 27.4488 2.41216 26.6616 3.1489C24.0698 5.57488 19.933 5.57478 17.3412 3.14874C16.5541 2.412 16.1606 2.04364 15.8353 2.00466C15.5101 1.96568 15.1442 2.17218 14.4126 2.58514L11.6613 4.13812C10.9114 4.5614 10.5365 4.77302 10.4022 5.07508C10.2678 5.37714 10.391 5.92762 10.6373 7.0286C11.3841 10.3661 9.2995 13.8156 5.9731 14.8148C4.92116 15.1308 4.3952 15.2888 4.1976 15.5545C4 15.8202 4 16.2473 4 17.1016V20.1407C4 20.9949 4 21.4221 4.19758 21.6877C4.39516 21.9535 4.92114 22.1115 5.9731 22.4275C9.29888 23.4269 11.3818 26.8763 10.6346 30.2137C10.3882 31.3145 10.2649 31.8649 10.3992 32.1671C10.5335 32.4691 10.9085 32.6807 11.6584 33.1041L14.4097 34.6571C15.1414 35.0701 15.5073 35.2765 15.8326 35.2375C16.1579 35.1985 16.5513 34.8301 17.3382 34.0933C19.9314 31.6653 24.0714 31.6651 26.6646 34.0933C27.4516 34.8299 27.845 35.1983 28.1702 35.2373C28.4956 35.2763 28.8614 35.0699 29.593 34.6569L32.3444 33.1039C33.0944 32.6805 33.4694 32.4689 33.6036 32.1667C33.738 31.8647 33.6146 31.3143 33.368 30.2135C32.6204 26.8763 34.7018 23.4269 38.027 22.4277Z" stroke="#D1D1D1" stroke-width="3" stroke-linecap="round"/>
<path d="M42 33.6211C42 35.4811 42 36.4111 41.7956 37.1741C41.2408 39.2445 39.6234 40.8619 37.553 41.4167C36.79 41.6211 35.86 41.6211 34 41.6211H10C8.14006 41.6211 7.21008 41.6211 6.44708 41.4167C4.37654 40.8619 2.75924 39.2445 2.20444 37.1741C2 36.4111 2 35.4811 2 33.6211" stroke="#D1D1D1" stroke-width="3" stroke-linecap="round"/>
</svg>
