<svg width="40" height="40" viewBox="0 0 40 40" fill="none" xmlns="http://www.w3.org/2000/svg">
<path d="M40 10.7636C40.0009 12.5166 39.5734 14.2433 38.7548 15.7935C37.9362 17.3436 36.7512 18.6703 35.303 19.6581C33.8548 20.6459 32.1872 21.2649 30.4452 21.4613C28.7032 21.6577 26.9396 21.4255 25.3078 20.7849L7.34778 38.7427C6.54058 39.5499 5.44579 40.0034 4.30423 40.0034C3.16268 40.0034 2.06788 39.5499 1.26068 38.7427C0.45348 37.9355 0 36.8407 0 35.6992C0 34.5576 0.45348 33.4628 1.26068 32.6556L19.2185 14.6978C18.5153 12.9093 18.3038 10.9652 18.6062 9.06733C18.9085 7.1695 19.7136 5.38727 20.9378 3.90586C22.162 2.42446 23.7606 1.29794 25.5674 0.643381C27.3743 -0.0111765 29.3235 -0.169884 31.2124 0.183752C32.0107 0.33329 32.2306 1.30089 31.65 1.86826L25.1187 8.24125L31.5753 14.6978L38.1396 8.29183C38.7113 7.73326 39.6613 7.95756 39.8109 8.74264C39.934 9.39797 40 10.0709 40 10.7636Z" fill="#D1D1D1"/>
</svg>
