<svg width="40" height="42" viewBox="0 0 40 42" fill="none" xmlns="http://www.w3.org/2000/svg">
<path d="M21.4197 23.196C21.6837 23.196 21.9157 23.192 22.1157 23.184C22.3237 23.168 22.4957 23.144 22.6317 23.112V21.252C22.5517 21.212 22.4197 21.18 22.2357 21.156C22.0597 21.124 21.8437 21.108 21.5877 21.108C21.4197 21.108 21.2397 21.12 21.0477 21.144C20.8637 21.168 20.6917 21.22 20.5317 21.3C20.3797 21.372 20.2517 21.476 20.1477 21.612C20.0437 21.74 19.9917 21.912 19.9917 22.128C19.9917 22.528 20.1197 22.808 20.3757 22.968C20.6317 23.12 20.9797 23.196 21.4197 23.196ZM21.3237 17.604C21.7717 17.604 22.1477 17.664 22.4517 17.784C22.7637 17.896 23.0117 18.06 23.1957 18.276C23.3877 18.484 23.5237 18.736 23.6037 19.032C23.6837 19.32 23.7237 19.64 23.7237 19.992V23.892C23.6277 23.908 23.4917 23.932 23.3157 23.964C23.1477 23.988 22.9557 24.012 22.7397 24.036C22.5237 24.06 22.2877 24.08 22.0317 24.096C21.7837 24.12 21.5357 24.132 21.2877 24.132C20.9357 24.132 20.6117 24.096 20.3157 24.024C20.0197 23.952 19.7637 23.84 19.5477 23.688C19.3317 23.528 19.1637 23.32 19.0437 23.064C18.9237 22.808 18.8637 22.5 18.8637 22.14C18.8637 21.796 18.9317 21.5 19.0677 21.252C19.2117 21.004 19.4037 20.804 19.6437 20.652C19.8837 20.5 20.1637 20.388 20.4837 20.316C20.8037 20.244 21.1397 20.208 21.4917 20.208C21.6037 20.208 21.7197 20.216 21.8397 20.232C21.9597 20.24 22.0717 20.256 22.1757 20.28C22.2877 20.296 22.3837 20.312 22.4637 20.328C22.5437 20.344 22.5997 20.356 22.6317 20.364V20.052C22.6317 19.868 22.6117 19.688 22.5717 19.512C22.5317 19.328 22.4597 19.168 22.3557 19.032C22.2517 18.888 22.1077 18.776 21.9237 18.696C21.7477 18.608 21.5157 18.564 21.2277 18.564C20.8597 18.564 20.5357 18.592 20.2557 18.648C19.9837 18.696 19.7797 18.748 19.6437 18.804L19.5117 17.88C19.6557 17.816 19.8957 17.756 20.2317 17.7C20.5677 17.636 20.9317 17.604 21.3237 17.604ZM26.6932 24H25.5772V17.76H26.6932V24ZM26.1292 16.632C25.9292 16.632 25.7572 16.568 25.6132 16.44C25.4772 16.304 25.4092 16.124 25.4092 15.9C25.4092 15.676 25.4772 15.5 25.6132 15.372C25.7572 15.236 25.9292 15.168 26.1292 15.168C26.3292 15.168 26.4972 15.236 26.6332 15.372C26.7772 15.5 26.8492 15.676 26.8492 15.9C26.8492 16.124 26.7772 16.304 26.6332 16.44C26.4972 16.568 26.3292 16.632 26.1292 16.632Z" fill="#D1D1D1"/>
<path d="M3.8361 16.9205C1.71705 16.9205 0 18.6376 0 20.7567C0 22.8749 1.71705 24.5922 3.8361 24.5922C5.95434 24.5922 7.67159 22.8749 7.67159 20.7567C7.67159 18.6374 5.95454 16.9205 3.8361 16.9205ZM31.2252 34.3551C29.3904 35.4143 28.7623 37.7594 29.8211 39.5934C30.8806 41.4283 33.2255 42.0567 35.0603 40.9975C36.8945 39.9384 37.5229 37.5934 36.4637 35.7587C35.4047 33.9247 33.0594 33.296 31.2252 34.3551ZM12.1684 20.756C12.1684 16.9649 14.0523 13.6164 16.9331 11.5887L14.1287 6.89106C10.7716 9.13398 8.27449 12.5628 7.23716 16.5788C8.44883 17.5664 9.22302 19.0704 9.22302 20.7565C9.22302 22.4421 8.44883 23.9461 7.23696 24.9335C8.27408 28.9499 10.7714 32.3787 14.1285 34.6214L16.9331 29.9234C14.0523 27.8961 12.1684 24.5478 12.1684 20.756ZM23.3738 9.55057C29.2278 9.55057 34.0297 14.039 34.533 19.7623L40 19.6824C39.731 15.4569 37.8852 11.6623 35.0485 8.87348C33.5901 9.42448 31.9053 9.34096 30.4492 8.50007C28.9912 7.65836 28.0763 6.2385 27.8258 4.6976C26.4083 4.30534 24.9165 4.09146 23.374 4.09146C20.7212 4.09146 18.2149 4.71423 15.9886 5.81704L18.6536 10.5932C20.0883 9.92561 21.6869 9.55057 23.3738 9.55057ZM23.3738 31.9617C21.6867 31.9617 20.0883 31.5867 18.6534 30.9191L15.988 35.6957C18.2145 36.7981 20.721 37.421 23.3738 37.421C24.9163 37.421 26.4081 37.2072 27.8258 36.8149C28.0763 35.274 28.9914 33.8541 30.4496 33.0118C31.9057 32.1713 33.5906 32.0878 35.0489 32.639C37.8854 29.85 39.7312 26.0554 39.9998 21.8299L34.5328 21.75C34.0299 27.4741 29.2278 31.9617 23.3738 31.9617ZM31.2246 7.15683C33.0592 8.21646 35.4045 7.58782 36.4633 5.75379C37.5227 3.91895 36.8947 1.57386 35.0599 0.514428C33.2255 -0.544593 30.8804 0.0838461 29.8209 1.91869C28.7619 3.75271 29.3904 6.09801 31.2246 7.15683Z" fill="#D1D1D1"/>
</svg>
